# xmcd
#
# Track frame offsets: 
#        150
#        13717
#        28529
#        52964
#        63231
#        82801
#        96477
#        112356
#        133035
#        151126
#        167759
#        182104
#        188001
#        201794
#        219126
#        238661
#        254490
#
# Disc length: 3679 seconds
#
# Revision: 0
# Processed by: cddbd v1.5.1PL2 Copyright (c) Steve Scherf et al.
# Submitted via: ExactAudioCopy v0.95a5
#
DISCID=e40e5d11
DTITLE=雨风 - 98年胡唱精选
DYEAR=1900
DGENRE=Blues
TTITLE0=今生今世1
TTITLE1=今生今世2
TTITLE2=追
TTITLE3=深情相拥
TTITLE4=一辈子失去了你
TTITLE5=何去何从之阿飞正传
TTITLE6=A_Thousand_Dreams_of_You
TTITLE7=当爱已成往事
TTITLE8=最爱的人不是你
TTITLE9=风继续吹+最爱+作伴
TTITLE10=做伴
TTITLE11=取暖1
TTITLE12=取暖2
TTITLE13=偷情
TTITLE14=怪你过分美丽
TTITLE15=雨川留声机
TTITLE16=雨川收留
EXTD=
EXTT0=
EXTT1=
EXTT2=
EXTT3=
EXTT4=
EXTT5=
EXTT6=
EXTT7=
EXTT8=
EXTT9=
EXTT10=
EXTT11=
EXTT12=
EXTT13=
EXTT14=
EXTT15=
EXTT16=
PLAYORDER=
